<!--?xml version="1.0" encoding="utf-8"?-->
<!-- Generator: Adobe Illustrator 18.1.1, SVG Export Plug-In . SVG Version: 6.00 Build 0)  -->

<svg version="1.1" id="_x32_" xmlns="http://www.w3.org/2000/svg" xmlns:xlink="http://www.w3.org/1999/xlink" x="0px" y="0px" viewBox="0 0 512 512" style="width: 256px; height: 256px; opacity: 1;" xml:space="preserve">
<style type="text/css">
	.st0{fill:#4B4B4B;}
</style>
<g>
	<path class="st0" d="M341.474,0.021c-37.55,0.69-59.765,22.898-74.648,44.776c-2.71,4.052-6.777,6.657-10.83,6.762
		c-4.053-0.105-8.113-2.71-10.823-6.762c-14.89-21.878-37.098-44.086-74.655-44.776c-49.28-1.006-94.041,34.855-94.041,114.013
		c0,78.032,67.097,133.398,108.481,161.595c16.737,11.46,36.093,21.023,48.522,26.682c-6.252,11.34-13.472,24.362-15.536,27.8
		c-3.842,6.41-1.291,15.371,5.119,15.371h59.682c6.41,0,8.962-8.961,5.119-15.371c-1.929-3.213-8.368-14.815-14.312-25.578
		c11.67-5.134,34.299-15.769,53.49-28.903c41.383-28.197,108.481-83.563,108.481-161.595
		C435.522,34.875,390.753-0.985,341.474,0.021z M158.323,191.93c-5.081,3.618-12.114,2.439-15.739-2.627
		c-9.209-12.894-16.046-27.515-18.778-43.688c-1.449-8.653-2.214-16.691-2.214-24.182c0-7.528,0.773-14.523,2.447-20.97
		c1.576-6.019,7.745-9.629,13.764-8.06c6.027,1.576,9.637,7.746,8.061,13.765c-1.096,4.181-1.719,9.277-1.719,15.266
		c0,5.959,0.608,12.774,1.906,20.43c2.072,12.256,7.272,23.641,14.898,34.336C164.567,181.273,163.389,188.313,158.323,191.93z
		 M173.596,57.045c-3.55,2.146-6.154,4.413-8.083,6.792c-3.933,4.826-11.033,5.554-15.874,1.622
		c-4.818-3.934-5.546-11.033-1.614-15.867c3.775-4.638,8.481-8.57,13.892-11.843c5.336-3.227,12.271-1.516,15.484,3.813
		C180.628,46.891,178.925,53.833,173.596,57.045z" style="fill: rgb(255, 69, 229);"></path>
	<rect x="244.836" y="365.977" class="st0" width="15.371" height="146.022" style="fill: rgb(255, 69, 229);"></rect>
</g>
</svg>
